<svg width="203" height="168" viewBox="0 0 203 168" fill="none" xmlns="http://www.w3.org/2000/svg">
<rect x="10" width="27" height="18" fill="#5F9EA0" fill-opacity="0.5"/>
<path d="M49.0085 3.81818L51.8423 12.1108H51.9567L54.7905 3.81818H56.451L52.7869 14H51.0121L47.348 3.81818H49.0085ZM59.2724 14.169C58.7885 14.169 58.351 14.0795 57.9599 13.9006C57.5688 13.7183 57.2589 13.4548 57.0302 13.1101C56.8048 12.7654 56.6921 12.3428 56.6921 11.8423C56.6921 11.4115 56.775 11.0568 56.9407 10.7784C57.1064 10.5 57.3301 10.2796 57.6119 10.1172C57.8936 9.95478 58.2085 9.83215 58.5565 9.74929C58.9045 9.66643 59.2591 9.60346 59.6204 9.56037C60.0778 9.50734 60.449 9.46425 60.734 9.43111C61.0191 9.39465 61.2262 9.33665 61.3555 9.2571C61.4847 9.17756 61.5494 9.0483 61.5494 8.86932V8.83452C61.5494 8.40033 61.4267 8.06392 61.1815 7.82528C60.9395 7.58665 60.5782 7.46733 60.0977 7.46733C59.5972 7.46733 59.2028 7.57836 58.9144 7.80043C58.6294 8.01918 58.4322 8.26278 58.3228 8.53125L56.9258 8.21307C57.0915 7.74905 57.3335 7.37453 57.6516 7.08949C57.9731 6.80114 58.3427 6.59233 58.7603 6.46307C59.1779 6.33049 59.6171 6.2642 60.0778 6.2642C60.3827 6.2642 60.7058 6.30066 61.0472 6.37358C61.3919 6.44318 61.7134 6.57244 62.0117 6.76136C62.3133 6.95028 62.5603 7.22041 62.7525 7.57173C62.9447 7.91974 63.0408 8.37216 63.0408 8.92898V14H61.5891V12.956H61.5295C61.4334 13.1482 61.2892 13.3371 61.0969 13.5227C60.9047 13.7083 60.6578 13.8625 60.3562 13.9851C60.0546 14.1077 59.6933 14.169 59.2724 14.169ZM59.5955 12.9759C60.0065 12.9759 60.3578 12.8946 60.6495 12.7322C60.9445 12.5698 61.1682 12.3577 61.3207 12.0959C61.4764 11.8307 61.5543 11.5473 61.5543 11.2457V10.2614C61.5013 10.3144 61.3986 10.3641 61.2461 10.4105C61.0969 10.4536 60.9263 10.4917 60.734 10.5249C60.5418 10.5547 60.3545 10.5829 60.1722 10.6094C59.9899 10.6326 59.8375 10.6525 59.7148 10.669C59.4265 10.7055 59.163 10.7668 58.9244 10.853C58.689 10.9392 58.5001 11.0634 58.3576 11.2259C58.2184 11.3849 58.1488 11.5971 58.1488 11.8622C58.1488 12.2301 58.2847 12.5085 58.5565 12.6974C58.8282 12.883 59.1746 12.9759 59.5955 12.9759ZM66.5073 3.81818V14H65.0208V3.81818H66.5073ZM73.3445 10.8331V6.36364H74.8359V14H73.3743V12.6776H73.2947C73.1191 13.0852 72.8374 13.425 72.4496 13.6967C72.0651 13.9652 71.5862 14.0994 71.0128 14.0994C70.5223 14.0994 70.0881 13.9917 69.7102 13.7763C69.3357 13.5575 69.0407 13.2344 68.8253 12.8068C68.6132 12.3793 68.5071 11.8506 68.5071 11.2209V6.36364H69.9936V11.0419C69.9936 11.5623 70.1378 11.9766 70.4261 12.2848C70.7145 12.593 71.089 12.7472 71.5497 12.7472C71.8281 12.7472 72.1049 12.6776 72.38 12.5384C72.6584 12.3991 72.8887 12.1887 73.071 11.907C73.2566 11.6252 73.3478 11.2673 73.3445 10.8331ZM80.1245 14.1541C79.3721 14.1541 78.7241 13.9934 78.1806 13.6719C77.6403 13.3471 77.2227 12.8913 76.9277 12.3047C76.6361 11.7147 76.4902 11.0237 76.4902 10.2315C76.4902 9.44934 76.6361 8.75994 76.9277 8.16335C77.2227 7.56676 77.6337 7.10109 78.1607 6.76633C78.691 6.43158 79.3108 6.2642 80.0201 6.2642C80.4509 6.2642 80.8685 6.33546 81.2729 6.47798C81.6773 6.6205 82.0402 6.84422 82.3617 7.14915C82.6832 7.45407 82.9367 7.85014 83.1223 8.33736C83.3079 8.82126 83.4007 9.40956 83.4007 10.1023V10.6293H77.3304V9.51562H81.9441C81.9441 9.12453 81.8645 8.77817 81.7054 8.47656C81.5463 8.17164 81.3226 7.93134 81.0343 7.75568C80.7492 7.58002 80.4145 7.49219 80.03 7.49219C79.6124 7.49219 79.2478 7.59493 78.9363 7.80043C78.628 8.0026 78.3894 8.26776 78.2203 8.59588C78.0546 8.92069 77.9718 9.27367 77.9718 9.65483V10.5249C77.9718 11.0353 78.0613 11.4695 78.2402 11.8274C78.4225 12.1854 78.6761 12.4588 79.0009 12.6477C79.3257 12.8333 79.7052 12.9261 80.1394 12.9261C80.4211 12.9261 80.678 12.8864 80.91 12.8068C81.142 12.724 81.3425 12.6013 81.5115 12.4389C81.6806 12.2765 81.8098 12.076 81.8993 11.8374L83.3063 12.0909C83.1936 12.5052 82.9914 12.8681 82.6998 13.1797C82.4114 13.4879 82.0485 13.7282 81.611 13.9006C81.1768 14.0696 80.6813 14.1541 80.1245 14.1541ZM92.5982 3.81818V14H91.057V5.35938H90.9973L88.5613 6.95028V5.47869L91.1017 3.81818H92.5982Z" fill="#0F172A"/>
<rect x="10" y="25" width="27" height="18" fill="#00CED1" fill-opacity="0.5"/>
<path d="M49.0085 28.8182L51.8423 37.1108H51.9567L54.7905 28.8182H56.451L52.7869 39H51.0121L47.348 28.8182H49.0085ZM59.2724 39.169C58.7885 39.169 58.351 39.0795 57.9599 38.9006C57.5688 38.7183 57.2589 38.4548 57.0302 38.1101C56.8048 37.7654 56.6921 37.3428 56.6921 36.8423C56.6921 36.4115 56.775 36.0568 56.9407 35.7784C57.1064 35.5 57.3301 35.2796 57.6119 35.1172C57.8936 34.9548 58.2085 34.8321 58.5565 34.7493C58.9045 34.6664 59.2591 34.6035 59.6204 34.5604C60.0778 34.5073 60.449 34.4643 60.734 34.4311C61.0191 34.3946 61.2262 34.3366 61.3555 34.2571C61.4847 34.1776 61.5494 34.0483 61.5494 33.8693V33.8345C61.5494 33.4003 61.4267 33.0639 61.1815 32.8253C60.9395 32.5866 60.5782 32.4673 60.0977 32.4673C59.5972 32.4673 59.2028 32.5784 58.9144 32.8004C58.6294 33.0192 58.4322 33.2628 58.3228 33.5312L56.9258 33.2131C57.0915 32.7491 57.3335 32.3745 57.6516 32.0895C57.9731 31.8011 58.3427 31.5923 58.7603 31.4631C59.1779 31.3305 59.6171 31.2642 60.0778 31.2642C60.3827 31.2642 60.7058 31.3007 61.0472 31.3736C61.3919 31.4432 61.7134 31.5724 62.0117 31.7614C62.3133 31.9503 62.5603 32.2204 62.7525 32.5717C62.9447 32.9197 63.0408 33.3722 63.0408 33.929V39H61.5891V37.956H61.5295C61.4334 38.1482 61.2892 38.3371 61.0969 38.5227C60.9047 38.7083 60.6578 38.8625 60.3562 38.9851C60.0546 39.1077 59.6933 39.169 59.2724 39.169ZM59.5955 37.9759C60.0065 37.9759 60.3578 37.8946 60.6495 37.7322C60.9445 37.5698 61.1682 37.3577 61.3207 37.0959C61.4764 36.8307 61.5543 36.5473 61.5543 36.2457V35.2614C61.5013 35.3144 61.3986 35.3641 61.2461 35.4105C61.0969 35.4536 60.9263 35.4917 60.734 35.5249C60.5418 35.5547 60.3545 35.5829 60.1722 35.6094C59.9899 35.6326 59.8375 35.6525 59.7148 35.669C59.4265 35.7055 59.163 35.7668 58.9244 35.853C58.689 35.9392 58.5001 36.0634 58.3576 36.2259C58.2184 36.3849 58.1488 36.5971 58.1488 36.8622C58.1488 37.2301 58.2847 37.5085 58.5565 37.6974C58.8282 37.883 59.1746 37.9759 59.5955 37.9759ZM66.5073 28.8182V39H65.0208V28.8182H66.5073ZM73.3445 35.8331V31.3636H74.8359V39H73.3743V37.6776H73.2947C73.1191 38.0852 72.8374 38.425 72.4496 38.6967C72.0651 38.9652 71.5862 39.0994 71.0128 39.0994C70.5223 39.0994 70.0881 38.9917 69.7102 38.7763C69.3357 38.5575 69.0407 38.2344 68.8253 37.8068C68.6132 37.3793 68.5071 36.8506 68.5071 36.2209V31.3636H69.9936V36.0419C69.9936 36.5623 70.1378 36.9766 70.4261 37.2848C70.7145 37.593 71.089 37.7472 71.5497 37.7472C71.8281 37.7472 72.1049 37.6776 72.38 37.5384C72.6584 37.3991 72.8887 37.1887 73.071 36.907C73.2566 36.6252 73.3478 36.2673 73.3445 35.8331ZM80.1245 39.1541C79.3721 39.1541 78.7241 38.9934 78.1806 38.6719C77.6403 38.3471 77.2227 37.8913 76.9277 37.3047C76.6361 36.7147 76.4902 36.0237 76.4902 35.2315C76.4902 34.4493 76.6361 33.7599 76.9277 33.1634C77.2227 32.5668 77.6337 32.1011 78.1607 31.7663C78.691 31.4316 79.3108 31.2642 80.0201 31.2642C80.4509 31.2642 80.8685 31.3355 81.2729 31.478C81.6773 31.6205 82.0402 31.8442 82.3617 32.1491C82.6832 32.4541 82.9367 32.8501 83.1223 33.3374C83.3079 33.8213 83.4007 34.4096 83.4007 35.1023V35.6293H77.3304V34.5156H81.9441C81.9441 34.1245 81.8645 33.7782 81.7054 33.4766C81.5463 33.1716 81.3226 32.9313 81.0343 32.7557C80.7492 32.58 80.4145 32.4922 80.03 32.4922C79.6124 32.4922 79.2478 32.5949 78.9363 32.8004C78.628 33.0026 78.3894 33.2678 78.2203 33.5959C78.0546 33.9207 77.9718 34.2737 77.9718 34.6548V35.5249C77.9718 36.0353 78.0613 36.4695 78.2402 36.8274C78.4225 37.1854 78.6761 37.4588 79.0009 37.6477C79.3257 37.8333 79.7052 37.9261 80.1394 37.9261C80.4211 37.9261 80.678 37.8864 80.91 37.8068C81.142 37.724 81.3425 37.6013 81.5115 37.4389C81.6806 37.2765 81.8098 37.076 81.8993 36.8374L83.3063 37.0909C83.1936 37.5052 82.9914 37.8681 82.6998 38.1797C82.4114 38.4879 82.0485 38.7282 81.611 38.9006C81.1768 39.0696 80.6813 39.1541 80.1245 39.1541ZM88.7353 39V37.8864L92.1806 34.3168C92.5485 33.929 92.8517 33.5893 93.0904 33.2976C93.3323 33.0026 93.513 32.7225 93.6323 32.4574C93.7516 32.1922 93.8113 31.9105 93.8113 31.6122C93.8113 31.2741 93.7317 30.9825 93.5726 30.7372C93.4135 30.4886 93.1964 30.2981 92.9213 30.1655C92.6462 30.0296 92.3364 29.9616 91.9917 29.9616C91.6271 29.9616 91.3089 30.0362 91.0371 30.1854C90.7653 30.3345 90.5565 30.545 90.4107 30.8168C90.2649 31.0885 90.1919 31.4067 90.1919 31.7713H88.7253C88.7253 31.1515 88.8678 30.6096 89.1529 30.1456C89.4379 29.6816 89.829 29.322 90.3262 29.0668C90.8233 28.8082 91.3884 28.679 92.0215 28.679C92.6612 28.679 93.2246 28.8066 93.7118 29.0618C94.2024 29.3137 94.5852 29.6584 94.8603 30.0959C95.1354 30.5301 95.2729 31.0206 95.2729 31.5675C95.2729 31.9453 95.2016 32.3149 95.0591 32.6761C94.9199 33.0374 94.6763 33.4401 94.3283 33.8842C93.9803 34.325 93.4964 34.8603 92.8766 35.4901L90.8532 37.608V37.6825H95.437V39H88.7353Z" fill="#0F172A"/>
<rect x="10" y="50" width="27" height="18" fill="#20B2AA" fill-opacity="0.5"/>
<path d="M49.0085 53.8182L51.8423 62.1108H51.9567L54.7905 53.8182H56.451L52.7869 64H51.0121L47.348 53.8182H49.0085ZM59.2724 64.169C58.7885 64.169 58.351 64.0795 57.9599 63.9006C57.5688 63.7183 57.2589 63.4548 57.0302 63.1101C56.8048 62.7654 56.6921 62.3428 56.6921 61.8423C56.6921 61.4115 56.775 61.0568 56.9407 60.7784C57.1064 60.5 57.3301 60.2796 57.6119 60.1172C57.8936 59.9548 58.2085 59.8321 58.5565 59.7493C58.9045 59.6664 59.2591 59.6035 59.6204 59.5604C60.0778 59.5073 60.449 59.4643 60.734 59.4311C61.0191 59.3946 61.2262 59.3366 61.3555 59.2571C61.4847 59.1776 61.5494 59.0483 61.5494 58.8693V58.8345C61.5494 58.4003 61.4267 58.0639 61.1815 57.8253C60.9395 57.5866 60.5782 57.4673 60.0977 57.4673C59.5972 57.4673 59.2028 57.5784 58.9144 57.8004C58.6294 58.0192 58.4322 58.2628 58.3228 58.5312L56.9258 58.2131C57.0915 57.7491 57.3335 57.3745 57.6516 57.0895C57.9731 56.8011 58.3427 56.5923 58.7603 56.4631C59.1779 56.3305 59.6171 56.2642 60.0778 56.2642C60.3827 56.2642 60.7058 56.3007 61.0472 56.3736C61.3919 56.4432 61.7134 56.5724 62.0117 56.7614C62.3133 56.9503 62.5603 57.2204 62.7525 57.5717C62.9447 57.9197 63.0408 58.3722 63.0408 58.929V64H61.5891V62.956H61.5295C61.4334 63.1482 61.2892 63.3371 61.0969 63.5227C60.9047 63.7083 60.6578 63.8625 60.3562 63.9851C60.0546 64.1077 59.6933 64.169 59.2724 64.169ZM59.5955 62.9759C60.0065 62.9759 60.3578 62.8946 60.6495 62.7322C60.9445 62.5698 61.1682 62.3577 61.3207 62.0959C61.4764 61.8307 61.5543 61.5473 61.5543 61.2457V60.2614C61.5013 60.3144 61.3986 60.3641 61.2461 60.4105C61.0969 60.4536 60.9263 60.4917 60.734 60.5249C60.5418 60.5547 60.3545 60.5829 60.1722 60.6094C59.9899 60.6326 59.8375 60.6525 59.7148 60.669C59.4265 60.7055 59.163 60.7668 58.9244 60.853C58.689 60.9392 58.5001 61.0634 58.3576 61.2259C58.2184 61.3849 58.1488 61.5971 58.1488 61.8622C58.1488 62.2301 58.2847 62.5085 58.5565 62.6974C58.8282 62.883 59.1746 62.9759 59.5955 62.9759ZM66.5073 53.8182V64H65.0208V53.8182H66.5073ZM73.3445 60.8331V56.3636H74.8359V64H73.3743V62.6776H73.2947C73.1191 63.0852 72.8374 63.425 72.4496 63.6967C72.0651 63.9652 71.5862 64.0994 71.0128 64.0994C70.5223 64.0994 70.0881 63.9917 69.7102 63.7763C69.3357 63.5575 69.0407 63.2344 68.8253 62.8068C68.6132 62.3793 68.5071 61.8506 68.5071 61.2209V56.3636H69.9936V61.0419C69.9936 61.5623 70.1378 61.9766 70.4261 62.2848C70.7145 62.593 71.089 62.7472 71.5497 62.7472C71.8281 62.7472 72.1049 62.6776 72.38 62.5384C72.6584 62.3991 72.8887 62.1887 73.071 61.907C73.2566 61.6252 73.3478 61.2673 73.3445 60.8331ZM80.1245 64.1541C79.3721 64.1541 78.7241 63.9934 78.1806 63.6719C77.6403 63.3471 77.2227 62.8913 76.9277 62.3047C76.6361 61.7147 76.4902 61.0237 76.4902 60.2315C76.4902 59.4493 76.6361 58.7599 76.9277 58.1634C77.2227 57.5668 77.6337 57.1011 78.1607 56.7663C78.691 56.4316 79.3108 56.2642 80.0201 56.2642C80.4509 56.2642 80.8685 56.3355 81.2729 56.478C81.6773 56.6205 82.0402 56.8442 82.3617 57.1491C82.6832 57.4541 82.9367 57.8501 83.1223 58.3374C83.3079 58.8213 83.4007 59.4096 83.4007 60.1023V60.6293H77.3304V59.5156H81.9441C81.9441 59.1245 81.8645 58.7782 81.7054 58.4766C81.5463 58.1716 81.3226 57.9313 81.0343 57.7557C80.7492 57.58 80.4145 57.4922 80.03 57.4922C79.6124 57.4922 79.2478 57.5949 78.9363 57.8004C78.628 58.0026 78.3894 58.2678 78.2203 58.5959C78.0546 58.9207 77.9718 59.2737 77.9718 59.6548V60.5249C77.9718 61.0353 78.0613 61.4695 78.2402 61.8274C78.4225 62.1854 78.6761 62.4588 79.0009 62.6477C79.3257 62.8333 79.7052 62.9261 80.1394 62.9261C80.4211 62.9261 80.678 62.8864 80.91 62.8068C81.142 62.724 81.3425 62.6013 81.5115 62.4389C81.6806 62.2765 81.8098 62.076 81.8993 61.8374L83.3063 62.0909C83.1936 62.5052 82.9914 62.8681 82.6998 63.1797C82.4114 63.4879 82.0485 63.7282 81.611 63.9006C81.1768 64.0696 80.6813 64.1541 80.1245 64.1541ZM92.28 64.1392C91.5972 64.1392 90.9874 64.0215 90.4505 63.7862C89.9168 63.5509 89.4943 63.2244 89.1827 62.8068C88.8745 62.3859 88.7087 61.8987 88.6855 61.3452H90.2466C90.2665 61.6468 90.3676 61.9086 90.5499 62.1307C90.7355 62.3494 90.9775 62.5185 91.2757 62.6378C91.574 62.7571 91.9055 62.8168 92.2701 62.8168C92.6711 62.8168 93.0257 62.7472 93.334 62.608C93.6455 62.4687 93.8891 62.2749 94.0648 62.0263C94.2405 61.7744 94.3283 61.4844 94.3283 61.1562C94.3283 60.8149 94.2405 60.5149 94.0648 60.2564C93.8925 59.9946 93.6389 59.7891 93.3042 59.6399C92.9727 59.4908 92.5717 59.4162 92.101 59.4162H91.2409V58.1634H92.101C92.4789 58.1634 92.8103 58.0954 93.0953 57.9595C93.3837 57.8236 93.6091 57.6347 93.7715 57.3928C93.9339 57.1475 94.0151 56.8608 94.0151 56.5327C94.0151 56.2178 93.9438 55.9444 93.8013 55.7124C93.6621 55.477 93.4632 55.2931 93.2047 55.1605C92.9495 55.0279 92.6479 54.9616 92.2999 54.9616C91.9685 54.9616 91.6586 55.023 91.3702 55.1456C91.0852 55.2649 90.8532 55.4373 90.6742 55.6626C90.4952 55.8847 90.3991 56.1515 90.3858 56.4631H88.8993C88.9159 55.9129 89.0783 55.429 89.3865 55.0114C89.6981 54.5937 90.1091 54.2673 90.6195 54.032C91.1299 53.7966 91.6967 53.679 92.3198 53.679C92.9727 53.679 93.5362 53.8066 94.0101 54.0618C94.4874 54.3137 94.8553 54.6501 95.1138 55.071C95.3757 55.492 95.5049 55.9527 95.5016 56.4531C95.5049 57.0232 95.3458 57.5071 95.0243 57.9048C94.7061 58.3026 94.2819 58.5694 93.7516 58.7053V58.7848C94.4277 58.8875 94.9514 59.156 95.3226 59.5902C95.6971 60.0244 95.8828 60.563 95.8794 61.206C95.8828 61.7661 95.727 62.2682 95.4121 62.7124C95.1006 63.1565 94.6747 63.5062 94.1344 63.7614C93.5942 64.0133 92.976 64.1392 92.28 64.1392Z" fill="#0F172A"/>
<rect x="10" y="75" width="27" height="18" fill="#2E8B57" fill-opacity="0.5"/>
<path d="M49.0085 78.8182L51.8423 87.1108H51.9567L54.7905 78.8182H56.451L52.7869 89H51.0121L47.348 78.8182H49.0085ZM59.2724 89.169C58.7885 89.169 58.351 89.0795 57.9599 88.9006C57.5688 88.7183 57.2589 88.4548 57.0302 88.1101C56.8048 87.7654 56.6921 87.3428 56.6921 86.8423C56.6921 86.4115 56.775 86.0568 56.9407 85.7784C57.1064 85.5 57.3301 85.2796 57.6119 85.1172C57.8936 84.9548 58.2085 84.8321 58.5565 84.7493C58.9045 84.6664 59.2591 84.6035 59.6204 84.5604C60.0778 84.5073 60.449 84.4643 60.734 84.4311C61.0191 84.3946 61.2262 84.3366 61.3555 84.2571C61.4847 84.1776 61.5494 84.0483 61.5494 83.8693V83.8345C61.5494 83.4003 61.4267 83.0639 61.1815 82.8253C60.9395 82.5866 60.5782 82.4673 60.0977 82.4673C59.5972 82.4673 59.2028 82.5784 58.9144 82.8004C58.6294 83.0192 58.4322 83.2628 58.3228 83.5312L56.9258 83.2131C57.0915 82.7491 57.3335 82.3745 57.6516 82.0895C57.9731 81.8011 58.3427 81.5923 58.7603 81.4631C59.1779 81.3305 59.6171 81.2642 60.0778 81.2642C60.3827 81.2642 60.7058 81.3007 61.0472 81.3736C61.3919 81.4432 61.7134 81.5724 62.0117 81.7614C62.3133 81.9503 62.5603 82.2204 62.7525 82.5717C62.9447 82.9197 63.0408 83.3722 63.0408 83.929V89H61.5891V87.956H61.5295C61.4334 88.1482 61.2892 88.3371 61.0969 88.5227C60.9047 88.7083 60.6578 88.8625 60.3562 88.9851C60.0546 89.1077 59.6933 89.169 59.2724 89.169ZM59.5955 87.9759C60.0065 87.9759 60.3578 87.8946 60.6495 87.7322C60.9445 87.5698 61.1682 87.3577 61.3207 87.0959C61.4764 86.8307 61.5543 86.5473 61.5543 86.2457V85.2614C61.5013 85.3144 61.3986 85.3641 61.2461 85.4105C61.0969 85.4536 60.9263 85.4917 60.734 85.5249C60.5418 85.5547 60.3545 85.5829 60.1722 85.6094C59.9899 85.6326 59.8375 85.6525 59.7148 85.669C59.4265 85.7055 59.163 85.7668 58.9244 85.853C58.689 85.9392 58.5001 86.0634 58.3576 86.2259C58.2184 86.3849 58.1488 86.5971 58.1488 86.8622C58.1488 87.2301 58.2847 87.5085 58.5565 87.6974C58.8282 87.883 59.1746 87.9759 59.5955 87.9759ZM66.5073 78.8182V89H65.0208V78.8182H66.5073ZM73.3445 85.8331V81.3636H74.8359V89H73.3743V87.6776H73.2947C73.1191 88.0852 72.8374 88.425 72.4496 88.6967C72.0651 88.9652 71.5862 89.0994 71.0128 89.0994C70.5223 89.0994 70.0881 88.9917 69.7102 88.7763C69.3357 88.5575 69.0407 88.2344 68.8253 87.8068C68.6132 87.3793 68.5071 86.8506 68.5071 86.2209V81.3636H69.9936V86.0419C69.9936 86.5623 70.1378 86.9766 70.4261 87.2848C70.7145 87.593 71.089 87.7472 71.5497 87.7472C71.8281 87.7472 72.1049 87.6776 72.38 87.5384C72.6584 87.3991 72.8887 87.1887 73.071 86.907C73.2566 86.6252 73.3478 86.2673 73.3445 85.8331ZM80.1245 89.1541C79.3721 89.1541 78.7241 88.9934 78.1806 88.6719C77.6403 88.3471 77.2227 87.8913 76.9277 87.3047C76.6361 86.7147 76.4902 86.0237 76.4902 85.2315C76.4902 84.4493 76.6361 83.7599 76.9277 83.1634C77.2227 82.5668 77.6337 82.1011 78.1607 81.7663C78.691 81.4316 79.3108 81.2642 80.0201 81.2642C80.4509 81.2642 80.8685 81.3355 81.2729 81.478C81.6773 81.6205 82.0402 81.8442 82.3617 82.1491C82.6832 82.4541 82.9367 82.8501 83.1223 83.3374C83.3079 83.8213 83.4007 84.4096 83.4007 85.1023V85.6293H77.3304V84.5156H81.9441C81.9441 84.1245 81.8645 83.7782 81.7054 83.4766C81.5463 83.1716 81.3226 82.9313 81.0343 82.7557C80.7492 82.58 80.4145 82.4922 80.03 82.4922C79.6124 82.4922 79.2478 82.5949 78.9363 82.8004C78.628 83.0026 78.3894 83.2678 78.2203 83.5959C78.0546 83.9207 77.9718 84.2737 77.9718 84.6548V85.5249C77.9718 86.0353 78.0613 86.4695 78.2402 86.8274C78.4225 87.1854 78.6761 87.4588 79.0009 87.6477C79.3257 87.8333 79.7052 87.9261 80.1394 87.9261C80.4211 87.9261 80.678 87.8864 80.91 87.8068C81.142 87.724 81.3425 87.6013 81.5115 87.4389C81.6806 87.2765 81.8098 87.076 81.8993 86.8374L83.3063 87.0909C83.1936 87.5052 82.9914 87.8681 82.6998 88.1797C82.4114 88.4879 82.0485 88.7282 81.611 88.9006C81.1768 89.0696 80.6813 89.1541 80.1245 89.1541ZM88.5215 87.0114V85.7685L92.9213 78.8182H93.9007V80.6477H93.2793L90.1323 85.6293V85.7088H96.1628V87.0114H88.5215ZM93.3489 89V86.6335L93.3588 86.0668V78.8182H94.8155V89H93.3489Z" fill="#0F172A"/>
<rect x="10" y="100" width="27" height="18" fill="#66CDAA" fill-opacity="0.5"/>
<path d="M49.0085 103.818L51.8423 112.111H51.9567L54.7905 103.818H56.451L52.7869 114H51.0121L47.348 103.818H49.0085ZM59.2724 114.169C58.7885 114.169 58.351 114.08 57.9599 113.901C57.5688 113.718 57.2589 113.455 57.0302 113.11C56.8048 112.765 56.6921 112.343 56.6921 111.842C56.6921 111.411 56.775 111.057 56.9407 110.778C57.1064 110.5 57.3301 110.28 57.6119 110.117C57.8936 109.955 58.2085 109.832 58.5565 109.749C58.9045 109.666 59.2591 109.603 59.6204 109.56C60.0778 109.507 60.449 109.464 60.734 109.431C61.0191 109.395 61.2262 109.337 61.3555 109.257C61.4847 109.178 61.5494 109.048 61.5494 108.869V108.835C61.5494 108.4 61.4267 108.064 61.1815 107.825C60.9395 107.587 60.5782 107.467 60.0977 107.467C59.5972 107.467 59.2028 107.578 58.9144 107.8C58.6294 108.019 58.4322 108.263 58.3228 108.531L56.9258 108.213C57.0915 107.749 57.3335 107.375 57.6516 107.089C57.9731 106.801 58.3427 106.592 58.7603 106.463C59.1779 106.33 59.6171 106.264 60.0778 106.264C60.3827 106.264 60.7058 106.301 61.0472 106.374C61.3919 106.443 61.7134 106.572 62.0117 106.761C62.3133 106.95 62.5603 107.22 62.7525 107.572C62.9447 107.92 63.0408 108.372 63.0408 108.929V114H61.5891V112.956H61.5295C61.4334 113.148 61.2892 113.337 61.0969 113.523C60.9047 113.708 60.6578 113.862 60.3562 113.985C60.0546 114.108 59.6933 114.169 59.2724 114.169ZM59.5955 112.976C60.0065 112.976 60.3578 112.895 60.6495 112.732C60.9445 112.57 61.1682 112.358 61.3207 112.096C61.4764 111.831 61.5543 111.547 61.5543 111.246V110.261C61.5013 110.314 61.3986 110.364 61.2461 110.411C61.0969 110.454 60.9263 110.492 60.734 110.525C60.5418 110.555 60.3545 110.583 60.1722 110.609C59.9899 110.633 59.8375 110.652 59.7148 110.669C59.4265 110.705 59.163 110.767 58.9244 110.853C58.689 110.939 58.5001 111.063 58.3576 111.226C58.2184 111.385 58.1488 111.597 58.1488 111.862C58.1488 112.23 58.2847 112.509 58.5565 112.697C58.8282 112.883 59.1746 112.976 59.5955 112.976ZM66.5073 103.818V114H65.0208V103.818H66.5073ZM73.3445 110.833V106.364H74.8359V114H73.3743V112.678H73.2947C73.1191 113.085 72.8374 113.425 72.4496 113.697C72.0651 113.965 71.5862 114.099 71.0128 114.099C70.5223 114.099 70.0881 113.992 69.7102 113.776C69.3357 113.558 69.0407 113.234 68.8253 112.807C68.6132 112.379 68.5071 111.851 68.5071 111.221V106.364H69.9936V111.042C69.9936 111.562 70.1378 111.977 70.4261 112.285C70.7145 112.593 71.089 112.747 71.5497 112.747C71.8281 112.747 72.1049 112.678 72.38 112.538C72.6584 112.399 72.8887 112.189 73.071 111.907C73.2566 111.625 73.3478 111.267 73.3445 110.833ZM80.1245 114.154C79.3721 114.154 78.7241 113.993 78.1806 113.672C77.6403 113.347 77.2227 112.891 76.9277 112.305C76.6361 111.715 76.4902 111.024 76.4902 110.232C76.4902 109.449 76.6361 108.76 76.9277 108.163C77.2227 107.567 77.6337 107.101 78.1607 106.766C78.691 106.432 79.3108 106.264 80.0201 106.264C80.4509 106.264 80.8685 106.335 81.2729 106.478C81.6773 106.621 82.0402 106.844 82.3617 107.149C82.6832 107.454 82.9367 107.85 83.1223 108.337C83.3079 108.821 83.4007 109.41 83.4007 110.102V110.629H77.3304V109.516H81.9441C81.9441 109.125 81.8645 108.778 81.7054 108.477C81.5463 108.172 81.3226 107.931 81.0343 107.756C80.7492 107.58 80.4145 107.492 80.03 107.492C79.6124 107.492 79.2478 107.595 78.9363 107.8C78.628 108.003 78.3894 108.268 78.2203 108.596C78.0546 108.921 77.9718 109.274 77.9718 109.655V110.525C77.9718 111.035 78.0613 111.469 78.2402 111.827C78.4225 112.185 78.6761 112.459 79.0009 112.648C79.3257 112.833 79.7052 112.926 80.1394 112.926C80.4211 112.926 80.678 112.886 80.91 112.807C81.142 112.724 81.3425 112.601 81.5115 112.439C81.6806 112.277 81.8098 112.076 81.8993 111.837L83.3063 112.091C83.1936 112.505 82.9914 112.868 82.6998 113.18C82.4114 113.488 82.0485 113.728 81.611 113.901C81.1768 114.07 80.6813 114.154 80.1245 114.154ZM92.0961 114.139C91.473 114.139 90.9128 114.02 90.4157 113.781C89.9218 113.539 89.5274 113.208 89.2324 112.787C88.9374 112.366 88.78 111.885 88.7601 111.345H90.2516C90.2881 111.783 90.4819 112.142 90.8333 112.424C91.1846 112.706 91.6055 112.847 92.0961 112.847C92.4872 112.847 92.8335 112.757 93.1351 112.578C93.44 112.396 93.6787 112.146 93.851 111.827C94.0267 111.509 94.1145 111.146 94.1145 110.739C94.1145 110.324 94.025 109.955 93.8461 109.63C93.6671 109.305 93.4202 109.05 93.1053 108.864C92.7937 108.679 92.4358 108.584 92.0314 108.581C91.7232 108.581 91.4133 108.634 91.1017 108.74C90.7902 108.846 90.5383 108.985 90.3461 109.158L88.9391 108.949L89.5108 103.818H95.1088V105.136H90.7885L90.4654 107.984H90.525C90.7239 107.792 90.9874 107.631 91.3155 107.502C91.647 107.373 92.0016 107.308 92.3794 107.308C92.9992 107.308 93.5511 107.456 94.035 107.751C94.5222 108.046 94.905 108.448 95.1834 108.959C95.4651 109.466 95.6043 110.049 95.601 110.709C95.6043 111.368 95.4552 111.957 95.1536 112.474C94.8553 112.991 94.441 113.398 93.9107 113.697C93.3837 113.992 92.7788 114.139 92.0961 114.139Z" fill="#0F172A"/>
<rect x="10" y="125" width="27" height="18" fill="#98FB98" fill-opacity="0.5"/>
<path d="M49.0085 128.818L51.8423 137.111H51.9567L54.7905 128.818H56.451L52.7869 139H51.0121L47.348 128.818H49.0085ZM59.2724 139.169C58.7885 139.169 58.351 139.08 57.9599 138.901C57.5688 138.718 57.2589 138.455 57.0302 138.11C56.8048 137.765 56.6921 137.343 56.6921 136.842C56.6921 136.411 56.775 136.057 56.9407 135.778C57.1064 135.5 57.3301 135.28 57.6119 135.117C57.8936 134.955 58.2085 134.832 58.5565 134.749C58.9045 134.666 59.2591 134.603 59.6204 134.56C60.0778 134.507 60.449 134.464 60.734 134.431C61.0191 134.395 61.2262 134.337 61.3555 134.257C61.4847 134.178 61.5494 134.048 61.5494 133.869V133.835C61.5494 133.4 61.4267 133.064 61.1815 132.825C60.9395 132.587 60.5782 132.467 60.0977 132.467C59.5972 132.467 59.2028 132.578 58.9144 132.8C58.6294 133.019 58.4322 133.263 58.3228 133.531L56.9258 133.213C57.0915 132.749 57.3335 132.375 57.6516 132.089C57.9731 131.801 58.3427 131.592 58.7603 131.463C59.1779 131.33 59.6171 131.264 60.0778 131.264C60.3827 131.264 60.7058 131.301 61.0472 131.374C61.3919 131.443 61.7134 131.572 62.0117 131.761C62.3133 131.95 62.5603 132.22 62.7525 132.572C62.9447 132.92 63.0408 133.372 63.0408 133.929V139H61.5891V137.956H61.5295C61.4334 138.148 61.2892 138.337 61.0969 138.523C60.9047 138.708 60.6578 138.862 60.3562 138.985C60.0546 139.108 59.6933 139.169 59.2724 139.169ZM59.5955 137.976C60.0065 137.976 60.3578 137.895 60.6495 137.732C60.9445 137.57 61.1682 137.358 61.3207 137.096C61.4764 136.831 61.5543 136.547 61.5543 136.246V135.261C61.5013 135.314 61.3986 135.364 61.2461 135.411C61.0969 135.454 60.9263 135.492 60.734 135.525C60.5418 135.555 60.3545 135.583 60.1722 135.609C59.9899 135.633 59.8375 135.652 59.7148 135.669C59.4265 135.705 59.163 135.767 58.9244 135.853C58.689 135.939 58.5001 136.063 58.3576 136.226C58.2184 136.385 58.1488 136.597 58.1488 136.862C58.1488 137.23 58.2847 137.509 58.5565 137.697C58.8282 137.883 59.1746 137.976 59.5955 137.976ZM66.5073 128.818V139H65.0208V128.818H66.5073ZM73.3445 135.833V131.364H74.8359V139H73.3743V137.678H73.2947C73.1191 138.085 72.8374 138.425 72.4496 138.697C72.0651 138.965 71.5862 139.099 71.0128 139.099C70.5223 139.099 70.0881 138.992 69.7102 138.776C69.3357 138.558 69.0407 138.234 68.8253 137.807C68.6132 137.379 68.5071 136.851 68.5071 136.221V131.364H69.9936V136.042C69.9936 136.562 70.1378 136.977 70.4261 137.285C70.7145 137.593 71.089 137.747 71.5497 137.747C71.8281 137.747 72.1049 137.678 72.38 137.538C72.6584 137.399 72.8887 137.189 73.071 136.907C73.2566 136.625 73.3478 136.267 73.3445 135.833ZM80.1245 139.154C79.3721 139.154 78.7241 138.993 78.1806 138.672C77.6403 138.347 77.2227 137.891 76.9277 137.305C76.6361 136.715 76.4902 136.024 76.4902 135.232C76.4902 134.449 76.6361 133.76 76.9277 133.163C77.2227 132.567 77.6337 132.101 78.1607 131.766C78.691 131.432 79.3108 131.264 80.0201 131.264C80.4509 131.264 80.8685 131.335 81.2729 131.478C81.6773 131.621 82.0402 131.844 82.3617 132.149C82.6832 132.454 82.9367 132.85 83.1223 133.337C83.3079 133.821 83.4007 134.41 83.4007 135.102V135.629H77.3304V134.516H81.9441C81.9441 134.125 81.8645 133.778 81.7054 133.477C81.5463 133.172 81.3226 132.931 81.0343 132.756C80.7492 132.58 80.4145 132.492 80.03 132.492C79.6124 132.492 79.2478 132.595 78.9363 132.8C78.628 133.003 78.3894 133.268 78.2203 133.596C78.0546 133.921 77.9718 134.274 77.9718 134.655V135.525C77.9718 136.035 78.0613 136.469 78.2402 136.827C78.4225 137.185 78.6761 137.459 79.0009 137.648C79.3257 137.833 79.7052 137.926 80.1394 137.926C80.4211 137.926 80.678 137.886 80.91 137.807C81.142 137.724 81.3425 137.601 81.5115 137.439C81.6806 137.277 81.8098 137.076 81.8993 136.837L83.3063 137.091C83.1936 137.505 82.9914 137.868 82.6998 138.18C82.4114 138.488 82.0485 138.728 81.611 138.901C81.1768 139.07 80.6813 139.154 80.1245 139.154ZM92.29 139.139C91.8359 139.133 91.3884 139.05 90.9476 138.891C90.5101 138.732 90.1124 138.466 89.7544 138.095C89.3965 137.724 89.1098 137.225 88.8944 136.599C88.6822 135.972 88.5762 135.19 88.5762 134.252C88.5762 133.364 88.664 132.575 88.8397 131.886C89.0186 131.196 89.2755 130.615 89.6103 130.141C89.945 129.663 90.3494 129.3 90.8233 129.052C91.2973 128.803 91.8292 128.679 92.4192 128.679C93.0257 128.679 93.5643 128.798 94.035 129.037C94.5056 129.276 94.8868 129.605 95.1784 130.026C95.4734 130.447 95.6607 130.926 95.7402 131.463H94.2239C94.1212 131.039 93.9173 130.692 93.6124 130.424C93.3075 130.156 92.9097 130.021 92.4192 130.021C91.6735 130.021 91.0918 130.346 90.6742 130.996C90.2599 131.645 90.0511 132.549 90.0478 133.705H90.1223C90.298 133.417 90.5134 133.172 90.7686 132.969C91.0272 132.764 91.3155 132.607 91.6337 132.497C91.9552 132.384 92.2933 132.328 92.6479 132.328C93.2379 132.328 93.7715 132.472 94.2488 132.761C94.7293 133.046 95.1122 133.44 95.3972 133.944C95.6822 134.448 95.8248 135.024 95.8248 135.674C95.8248 136.324 95.6773 136.912 95.3823 137.439C95.0906 137.966 94.6796 138.384 94.1493 138.692C93.619 138.997 92.9992 139.146 92.29 139.139ZM92.285 137.847C92.6761 137.847 93.0257 137.75 93.334 137.558C93.6422 137.366 93.8858 137.107 94.0648 136.783C94.2438 136.458 94.3333 136.095 94.3333 135.694C94.3333 135.303 94.2454 134.946 94.0698 134.625C93.8974 134.304 93.6588 134.048 93.3539 133.859C93.0523 133.67 92.7076 133.576 92.3198 133.576C92.0248 133.576 91.7514 133.632 91.4995 133.745C91.2509 133.858 91.0321 134.013 90.8432 134.212C90.6543 134.411 90.5051 134.64 90.3958 134.898C90.2897 135.154 90.2367 135.424 90.2367 135.709C90.2367 136.09 90.3245 136.443 90.5002 136.768C90.6792 137.093 90.9228 137.354 91.231 137.553C91.5426 137.749 91.8939 137.847 92.285 137.847Z" fill="#0F172A"/>
<rect x="10" y="150" width="27" height="18" fill="#98FB98" fill-opacity="0.5"/>
<path d="M49.0085 153.818L51.8423 162.111H51.9567L54.7905 153.818H56.451L52.7869 164H51.0121L47.348 153.818H49.0085ZM59.2724 164.169C58.7885 164.169 58.351 164.08 57.9599 163.901C57.5688 163.718 57.2589 163.455 57.0302 163.11C56.8048 162.765 56.6921 162.343 56.6921 161.842C56.6921 161.411 56.775 161.057 56.9407 160.778C57.1064 160.5 57.3301 160.28 57.6119 160.117C57.8936 159.955 58.2085 159.832 58.5565 159.749C58.9045 159.666 59.2591 159.603 59.6204 159.56C60.0778 159.507 60.449 159.464 60.734 159.431C61.0191 159.395 61.2262 159.337 61.3555 159.257C61.4847 159.178 61.5494 159.048 61.5494 158.869V158.835C61.5494 158.4 61.4267 158.064 61.1815 157.825C60.9395 157.587 60.5782 157.467 60.0977 157.467C59.5972 157.467 59.2028 157.578 58.9144 157.8C58.6294 158.019 58.4322 158.263 58.3228 158.531L56.9258 158.213C57.0915 157.749 57.3335 157.375 57.6516 157.089C57.9731 156.801 58.3427 156.592 58.7603 156.463C59.1779 156.33 59.6171 156.264 60.0778 156.264C60.3827 156.264 60.7058 156.301 61.0472 156.374C61.3919 156.443 61.7134 156.572 62.0117 156.761C62.3133 156.95 62.5603 157.22 62.7525 157.572C62.9447 157.92 63.0408 158.372 63.0408 158.929V164H61.5891V162.956H61.5295C61.4334 163.148 61.2892 163.337 61.0969 163.523C60.9047 163.708 60.6578 163.862 60.3562 163.985C60.0546 164.108 59.6933 164.169 59.2724 164.169ZM59.5955 162.976C60.0065 162.976 60.3578 162.895 60.6495 162.732C60.9445 162.57 61.1682 162.358 61.3207 162.096C61.4764 161.831 61.5543 161.547 61.5543 161.246V160.261C61.5013 160.314 61.3986 160.364 61.2461 160.411C61.0969 160.454 60.9263 160.492 60.734 160.525C60.5418 160.555 60.3545 160.583 60.1722 160.609C59.9899 160.633 59.8375 160.652 59.7148 160.669C59.4265 160.705 59.163 160.767 58.9244 160.853C58.689 160.939 58.5001 161.063 58.3576 161.226C58.2184 161.385 58.1488 161.597 58.1488 161.862C58.1488 162.23 58.2847 162.509 58.5565 162.697C58.8282 162.883 59.1746 162.976 59.5955 162.976ZM66.5073 153.818V164H65.0208V153.818H66.5073ZM73.3445 160.833V156.364H74.8359V164H73.3743V162.678H73.2947C73.1191 163.085 72.8374 163.425 72.4496 163.697C72.0651 163.965 71.5862 164.099 71.0128 164.099C70.5223 164.099 70.0881 163.992 69.7102 163.776C69.3357 163.558 69.0407 163.234 68.8253 162.807C68.6132 162.379 68.5071 161.851 68.5071 161.221V156.364H69.9936V161.042C69.9936 161.562 70.1378 161.977 70.4261 162.285C70.7145 162.593 71.089 162.747 71.5497 162.747C71.8281 162.747 72.1049 162.678 72.38 162.538C72.6584 162.399 72.8887 162.189 73.071 161.907C73.2566 161.625 73.3478 161.267 73.3445 160.833ZM80.1245 164.154C79.3721 164.154 78.7241 163.993 78.1806 163.672C77.6403 163.347 77.2227 162.891 76.9277 162.305C76.6361 161.715 76.4902 161.024 76.4902 160.232C76.4902 159.449 76.6361 158.76 76.9277 158.163C77.2227 157.567 77.6337 157.101 78.1607 156.766C78.691 156.432 79.3108 156.264 80.0201 156.264C80.4509 156.264 80.8685 156.335 81.2729 156.478C81.6773 156.621 82.0402 156.844 82.3617 157.149C82.6832 157.454 82.9367 157.85 83.1223 158.337C83.3079 158.821 83.4007 159.41 83.4007 160.102V160.629H77.3304V159.516H81.9441C81.9441 159.125 81.8645 158.778 81.7054 158.477C81.5463 158.172 81.3226 157.931 81.0343 157.756C80.7492 157.58 80.4145 157.492 80.03 157.492C79.6124 157.492 79.2478 157.595 78.9363 157.8C78.628 158.003 78.3894 158.268 78.2203 158.596C78.0546 158.921 77.9718 159.274 77.9718 159.655V160.525C77.9718 161.035 78.0613 161.469 78.2402 161.827C78.4225 162.185 78.6761 162.459 79.0009 162.648C79.3257 162.833 79.7052 162.926 80.1394 162.926C80.4211 162.926 80.678 162.886 80.91 162.807C81.142 162.724 81.3425 162.601 81.5115 162.439C81.6806 162.277 81.8098 162.076 81.8993 161.837L83.3063 162.091C83.1936 162.505 82.9914 162.868 82.6998 163.18C82.4114 163.488 82.0485 163.728 81.611 163.901C81.1768 164.07 80.6813 164.154 80.1245 164.154ZM89.0783 164L93.5229 155.21V155.136H88.3823V153.818H95.1138V155.18L90.6841 164H89.0783Z" fill="#0F172A"/>
</svg>
