<svg width="14" height="10" viewBox="0 0 14 10" fill="none" xmlns="http://www.w3.org/2000/svg">
  <path d="M0.566406 0.733529C0.566406 0.715122 0.581333 0.700195 0.59974 0.700195H13.3997C13.4181 0.700195 13.4331 0.715148 13.4331 0.733529C13.4331 0.751909 13.4181 0.766862 13.3997 0.766862H0.59974C0.581333 0.766862 0.566406 0.751936 0.566406 0.733529ZM0.566406 5.0002C0.566406 4.98179 0.581333 4.96686 0.59974 4.96686H13.3997C13.4181 4.96686 13.4331 4.98181 13.4331 5.0002C13.4331 5.01858 13.4181 5.03353 13.3997 5.03353H0.59974C0.581333 5.03353 0.566406 5.0186 0.566406 5.0002ZM0.566406 9.26686C0.566406 9.24847 0.581359 9.23353 0.59974 9.23353H13.3997C13.4181 9.23353 13.4331 9.2485 13.4331 9.26686C13.4331 9.28523 13.4181 9.3002 13.3997 9.3002H0.59974C0.581358 9.3002 0.566406 9.28525 0.566406 9.26686Z" fill="#09090B" stroke="#09090B"/>
</svg>