<svg width="17" height="16" viewBox="0 0 17 16" fill="none" xmlns="http://www.w3.org/2000/svg">
<g id="Icons">
<path id="Vector" d="M7.08634 6.58671C6.88984 6.76981 6.73224 6.99061 6.62292 7.23594C6.51361 7.48127 6.45483 7.74611 6.4501 8.01465C6.44536 8.28319 6.49476 8.54993 6.59535 8.79897C6.69594 9.048 6.84565 9.27423 7.03557 9.46414C7.22549 9.65406 7.45171 9.80378 7.70075 9.90437C7.94978 10.005 8.21653 10.0544 8.48507 10.0496C8.75361 10.0449 9.01844 9.9861 9.26378 9.87679C9.50911 9.76748 9.72991 9.60987 9.91301 9.41337M7.65301 3.38671C7.93388 3.35171 8.21663 3.3339 8.49967 3.33337C13.1663 3.33337 15.1663 8.00004 15.1663 8.00004C14.8683 8.63812 14.4945 9.238 14.053 9.78671M4.90634 4.40671C3.58051 5.30979 2.51959 6.55021 1.83301 8.00004C1.83301 8.00004 3.83301 12.6667 8.49967 12.6667C9.77695 12.6701 11.0269 12.2968 12.093 11.5934M1.83301 1.33337L15.1663 14.6667" stroke="white" stroke-linecap="round" stroke-linejoin="round"/>
</g>
</svg>
