<svg width="16" height="16" viewBox="0 0 16 16" fill="none" xmlns="http://www.w3.org/2000/svg">
<g clip-path="url(#clip0_761_6060)">
<path d="M14.3607 9.99992H11.334C10.9804 9.99992 10.6412 10.1404 10.3912 10.3904C10.1411 10.6405 10.0007 10.9796 10.0007 11.3333V14.3599M4.66732 2.22659V3.33325C4.66732 3.86368 4.87803 4.37239 5.2531 4.74747C5.62818 5.12254 6.13688 5.33325 6.66732 5.33325C7.02094 5.33325 7.36008 5.47373 7.61013 5.72378C7.86017 5.97382 8.00065 6.31296 8.00065 6.66658C8.00065 7.39992 8.60065 7.99992 9.33398 7.99992C9.68761 7.99992 10.0267 7.85944 10.2768 7.60939C10.5268 7.35935 10.6673 7.02021 10.6673 6.66658C10.6673 5.93325 11.2673 5.33325 12.0007 5.33325H14.114M7.33398 14.6333V11.9999C7.33398 11.6463 7.19351 11.3072 6.94346 11.0571C6.69341 10.8071 6.35427 10.6666 6.00065 10.6666C5.64703 10.6666 5.30789 10.5261 5.05784 10.2761C4.80779 10.026 4.66732 9.68687 4.66732 9.33325V8.66658C4.66732 8.31296 4.52684 7.97382 4.27679 7.72378C4.02675 7.47373 3.68761 7.33325 3.33398 7.33325H1.36732M14.6673 7.99992C14.6673 11.6818 11.6825 14.6666 8.00065 14.6666C4.31875 14.6666 1.33398 11.6818 1.33398 7.99992C1.33398 4.31802 4.31875 1.33325 8.00065 1.33325C11.6825 1.33325 14.6673 4.31802 14.6673 7.99992Z" stroke="#09090B" stroke-linecap="round" stroke-linejoin="round"/>
</g>
<defs>
<clipPath id="clip0_761_6060">
<rect width="16" height="16" fill="white"/>
</clipPath>
</defs>
</svg>
