<svg width="17" height="16" viewBox="0 0 17 16" fill="none" xmlns="http://www.w3.org/2000/svg">
<path d="M2.32617 2V14H14.3262M5.65951 5C5.65951 5.1841 5.51027 5.33333 5.32617 5.33333C5.14208 5.33333 4.99284 5.1841 4.99284 5C4.99284 4.81591 5.14208 4.66667 5.32617 4.66667C5.51027 4.66667 5.65951 4.81591 5.65951 5ZM12.9928 3.66667C12.9928 3.85076 12.8436 4 12.6595 4C12.4754 4 12.3262 3.85076 12.3262 3.66667C12.3262 3.48257 12.4754 3.33333 12.6595 3.33333C12.8436 3.33333 12.9928 3.48257 12.9928 3.66667ZM8.32617 7.66667C8.32617 7.85076 8.17693 8 7.99284 8C7.80874 8 7.65951 7.85076 7.65951 7.66667C7.65951 7.48257 7.80874 7.33333 7.99284 7.33333C8.17693 7.33333 8.32617 7.48257 8.32617 7.66667ZM5.65951 11C5.65951 11.1841 5.51027 11.3333 5.32617 11.3333C5.14208 11.3333 4.99284 11.1841 4.99284 11C4.99284 10.8159 5.14208 10.6667 5.32617 10.6667C5.51027 10.6667 5.65951 10.8159 5.65951 11ZM12.3262 9.66667C12.3262 9.85076 12.1769 10 11.9928 10C11.8087 10 11.6595 9.85076 11.6595 9.66667C11.6595 9.48257 11.8087 9.33333 11.9928 9.33333C12.1769 9.33333 12.3262 9.48257 12.3262 9.66667Z" stroke="#09090B" stroke-linecap="round" stroke-linejoin="round"/>
</svg>
